<svg width="30" height="30" viewBox="0 0 30 30" fill="none" xmlns="http://www.w3.org/2000/svg">
<path fill-rule="evenodd" clip-rule="evenodd" d="M1.00721 29.5917C0.511965 29.5936 0.108421 29.193 0.106581 28.6978L0.0308325 8.3033L21.1846 8.22473L21.2518 26.3188L23.8457 26.3091C24.9192 26.3051 25.7884 25.4294 25.7844 24.3553L25.7594 17.6139C24.7992 17.5027 24.051 16.6872 24.0473 15.6951L24.0412 14.0516L24.8659 14.0485L24.8614 12.8508C24.8604 12.5733 25.0847 12.3469 25.362 12.3459L25.4743 12.3455C25.7513 12.3445 25.9776 12.5692 25.9787 12.8467L25.9831 14.0444L27.0945 14.0403L27.09 12.8426C27.089 12.5651 27.3139 12.3387 27.5908 12.3376L27.7031 12.3372C27.9805 12.3362 28.2065 12.5609 28.2075 12.8384L28.2119 14.0361L29.041 14.033L29.0471 15.6765C29.051 16.7076 28.2496 17.5535 27.234 17.6189L27.1078 17.6198L27.1328 24.3505C27.1395 26.1679 25.6696 27.6509 23.8506 27.6577L21.2568 27.6673L21.2603 28.6196C21.2621 29.1149 20.8616 29.5184 20.3665 29.5202C13.915 30.0496 7.46267 30.1243 1.00715 29.5922L1.00721 29.5917ZM8.25786 23.5723L13.8407 17.4071L10.4989 17.4195L13.322 13.3544L9.67578 13.3679L8.02248 18.2918L10.3946 18.39L8.25786 23.5723ZM0.0277128 7.56902L0.00452077 1.32483C0.00268136 0.82959 0.403226 0.426242 0.898483 0.424402C7.35024 -0.0567996 13.8029 -0.01869 20.2579 0.352498C20.7529 0.350659 21.1565 0.751011 21.1583 1.24626L21.1815 7.49045L0.0277128 7.56902Z" fill="#C4C6D2"/>
</svg>
