<svg width="40" height="31" viewBox="0 0 40 31" fill="none" xmlns="http://www.w3.org/2000/svg">
<path fill-rule="evenodd" clip-rule="evenodd" d="M34.813 16.3552C34.5842 16.0393 34.1427 15.9696 33.8274 16.1985C33.5115 16.4266 33.4418 16.8682 33.6699 17.1833L35.1027 19.1537C35.3316 19.4697 35.7724 19.5393 36.0875 19.3113C36.4034 19.0832 36.4731 18.6416 36.245 18.3265L34.813 16.3552ZM36.7593 13.6736L39.0768 14.4264C39.4471 14.5463 39.8456 14.3439 39.9649 13.9736C40.0848 13.6033 39.8824 13.2049 39.5121 13.0856L37.1945 12.332C36.8242 12.2121 36.4266 12.4145 36.3065 12.7848C36.1874 13.1553 36.3898 13.5535 36.7593 13.6736V13.6736ZM37.1953 9.019L39.5129 8.26538C39.8832 8.14608 40.085 7.74703 39.9657 7.37737C39.8458 7.00768 39.4474 6.80466 39.0777 6.92457L36.7601 7.67819C36.3898 7.79811 36.1874 8.19653 36.3073 8.5662C36.4275 8.93671 36.8251 9.13832 37.1953 9.019ZM34.8131 4.99672L36.2451 3.02465C36.4731 2.70955 36.4035 2.2679 36.0875 2.03988C35.7716 1.81186 35.3316 1.8815 35.1028 2.1966L33.6699 4.16868C33.4419 4.48461 33.5116 4.92542 33.8275 5.15345C34.1426 5.38233 34.5842 5.31182 34.8131 4.99672H34.8131ZM30.5209 3.14395V0.707096C30.5209 0.316735 30.205 0 29.8144 0C29.4241 0 29.1079 0.316756 29.1079 0.707096V3.14395C29.1079 3.53431 29.4247 3.85105 29.8144 3.85105C30.205 3.85022 30.5209 3.53429 30.5209 3.14395ZM25.9594 4.16863L24.5266 2.1974C24.2985 1.88147 23.8569 1.81097 23.5418 2.03985C23.2267 2.2679 23.1562 2.70952 23.3843 3.02546L24.8179 4.99669C25.046 5.31262 25.4876 5.3823 25.8027 5.15341C26.1178 4.92536 26.1873 4.48395 25.9594 4.16865L25.9594 4.16863ZM22.869 7.67669L20.5514 6.92386C20.1811 6.80394 19.7835 7.00636 19.6634 7.37667C19.5435 7.74697 19.7465 8.14537 20.1162 8.26468L22.4338 9.0175C22.8035 9.13742 23.2017 8.93501 23.3218 8.5647C23.4417 8.19501 23.2393 7.79658 22.869 7.67669ZM5.99533 11.7815H29.2704L33.6503 28.6551H1.61588L5.99533 11.7815ZM29.8145 10.3687H5.45068C5.10188 10.3687 4.81224 10.6208 4.75475 10.9528L0.0226823 29.1857C-0.0749106 29.5624 0.151493 29.9466 0.527589 30.0442L0.704365 30.069H34.5623C34.9526 30.069 35.2688 29.7531 35.2688 29.3625C35.2688 29.2808 35.2551 29.2024 35.2295 29.1297L30.4966 10.8973C30.4149 10.5805 30.1286 10.3703 29.8149 10.3686L29.8145 10.3687ZM12.9467 16.4425V13.0024L6.93961 13.0026L6.0499 16.4427L12.9467 16.4425ZM14.2298 13.0026V16.4427H21.0361V13.0026H14.2298ZM22.3202 13.0026V16.4427H29.2154L28.3257 13.0026H22.3202ZM29.5499 17.7258H22.3202V22.1626H30.7001L29.5499 17.7258ZM21.0361 22.1626V17.7258H14.2298V22.1626H21.0361ZM12.9462 22.1626V17.7258H5.71756L4.56547 22.1626H12.9462ZM12.9462 23.4466H4.2318L3.19347 27.4346H12.9453V23.4466H12.9462ZM14.2294 23.4466V27.4346H21.0357V23.4458H14.2294V23.4466ZM22.3198 23.4466V27.4346H32.0716L31.0333 23.4458H22.3199L22.3198 23.4466ZM25.2189 9.44869H29.8141C30.5541 9.44869 31.2004 9.95111 31.3869 10.6671L32.4214 14.6512L32.7933 16.0824C33.2782 15.8103 33.7413 15.4615 34.1709 15.0312C38.0485 11.1537 35.2806 4.51453 29.8149 4.51453C26.8318 4.51453 24.3446 6.63465 23.7756 9.44964H25.2188L25.2189 9.44869Z" fill="#F3F3F3" fill-opacity="0.8"/>
</svg>
