<svg width="29" height="37" viewBox="0 0 29 37" fill="none" xmlns="http://www.w3.org/2000/svg">
<path fill-rule="evenodd" clip-rule="evenodd" d="M9.90863 1.28571L9.61324 4.06344H5.6912L9.35865 1.28571H9.90863ZM19.3941 4.06267L19.0987 1.28571H19.6525L23.3184 4.06344H19.3941L19.3941 4.06267ZM20.1944 11.5828H20.8528L25.7154 15.2678H20.5867L20.1944 11.5828ZM8.16782 11.5828H8.81312L8.4209 15.2678H3.30271L8.16782 11.5828ZM10.3155 9.59309L13.4446 11.9808L9.7634 14.7883L10.3155 9.59309ZM9.7209 31.096L14.503 28.351L19.2851 31.096H9.7209ZM8.67473 25.005L13.2137 27.611L8.08397 30.5561L8.67473 25.005ZM15.792 27.6103L20.331 25.005L20.9217 30.5559L15.792 27.6103ZM9.37799 23.9275L14.5024 20.5699L19.6279 23.9281L14.5024 26.871L9.37799 23.9275ZM9.49588 17.2888L13.3307 19.8016L8.9211 22.6906L9.49588 17.2888ZM15.6745 19.801L19.5093 17.2888L20.0841 22.6905L15.6745 19.801ZM10.0985 16.148L14.5023 12.7883L18.9054 16.1472L14.5023 19.0325L10.0985 16.148ZM15.5619 11.98L18.691 9.59223L19.244 14.7884L15.5619 11.98ZM14.5033 5.03312L18.1781 8.36945L14.5027 11.1718L10.8287 8.36945L14.5033 5.03312ZM17.8797 1.96658L18.397 6.83448L15.457 4.16597L17.8797 1.96658ZM9.47581 5.34807L8.94916 10.2983H7.95036C7.8099 10.2983 7.67528 10.3434 7.56115 10.4299L1.00275 15.3979C0.841236 15.5209 0.699463 15.6984 0.699463 15.9093V16.4157L0.519521 16.4159C0.232969 16.4159 0 16.6479 0 16.9347C0 17.1682 0.154937 17.3654 0.368911 17.4301C0.155687 17.4948 0 17.6928 0 17.9271C0 18.2123 0.232776 18.4451 0.519521 18.4451H0.700027C0.706608 18.7245 0.936567 18.9499 1.21729 18.9499C1.4982 18.9499 1.72795 18.7245 1.73531 18.4451H1.89833C2.18357 18.4451 2.41559 18.2131 2.41559 17.9271C2.41559 17.6928 2.26065 17.495 2.04744 17.4301C2.25991 17.3654 2.41559 17.1682 2.41559 16.9347C2.41559 16.784 2.35166 16.6481 2.249 16.5535H8.28369L6.73624 31.0965H5.27246C4.91896 31.0965 4.63072 31.3846 4.63072 31.7383V35.7339C4.63072 36.0881 4.91878 36.3756 5.27246 36.3756H23.7303C24.0838 36.3756 24.3733 36.0875 24.3733 35.7339V31.7383C24.3733 31.384 24.0838 31.0965 23.7303 31.0965H22.2701L20.7226 16.5535H26.7525C26.6498 16.6481 26.5852 16.7835 26.5852 16.9347C26.5852 17.1682 26.7401 17.3654 26.9541 17.4301C26.7401 17.4948 26.5852 17.6928 26.5852 17.9271C26.5852 18.2123 26.8172 18.4451 27.1047 18.4451H27.2844C27.291 18.7245 27.521 18.9499 27.8017 18.9499C28.0826 18.9499 28.3124 18.7245 28.319 18.4451H28.482C28.7672 18.4451 29 18.2131 29 17.9271C29 17.6928 28.8451 17.495 28.6318 17.4301C28.8443 17.3654 29 17.1682 29 16.9347C29 16.6481 28.7672 16.4159 28.482 16.4159H28.319V15.9095C28.319 15.6993 28.177 15.5203 28.0162 15.3981L21.4554 10.4301C21.3426 10.3441 21.2067 10.2985 21.0685 10.2985H20.0565L19.5299 5.34825H24.3482C24.2485 5.44283 24.1867 5.57596 24.1867 5.72375C24.1867 5.95728 24.3416 6.15452 24.5548 6.2192C24.3416 6.28313 24.1867 6.48187 24.1867 6.71692C24.1867 7.00215 24.4187 7.23494 24.7054 7.23494H24.8859C24.8925 7.5136 25.1225 7.73978 25.404 7.73978C25.6841 7.73978 25.9139 7.51359 25.9212 7.23494H26.085C26.3702 7.23494 26.6022 7.00217 26.6022 6.71692C26.6022 6.48263 26.4473 6.28408 26.2348 6.2192C26.4473 6.15452 26.6022 5.95728 26.6022 5.72375C26.6022 5.43776 26.3702 5.205 26.085 5.205H25.9212L25.921 4.69919C25.921 4.48672 25.7798 4.31656 25.6183 4.19358L20.2551 0.131808C20.1438 0.046633 20.0078 0 19.8674 0H9.14147C9.00101 0 8.86639 0.046631 8.75226 0.131621L3.38905 4.19282C3.22754 4.3156 3.08727 4.48595 3.08727 4.6992V5.20558H2.90752C2.62021 5.20558 2.388 5.4376 2.388 5.72433C2.388 5.95786 2.54293 6.1551 2.75615 6.21978C2.54293 6.28371 2.388 6.48227 2.388 6.71654C2.388 7.00177 2.62002 7.23456 2.90752 7.23456H3.08727C3.09385 7.51322 3.32381 7.7394 3.60453 7.7394C3.88544 7.7394 4.11519 7.51321 4.12179 7.23456H4.28481C4.57005 7.23456 4.80284 7.00179 4.80284 6.71654C4.80284 6.48225 4.6479 6.2837 4.43468 6.21882C4.64715 6.15414 4.80284 5.9569 4.80284 5.72337C4.80284 5.57577 4.74097 5.44189 4.64132 5.34787L9.47581 5.34807ZM11.1267 1.96658L13.5487 4.16592L10.6087 6.83443L11.1267 1.96658ZM16.7214 1.28557L14.5025 3.29935L12.2836 1.28557H16.7214Z" fill="#F3F3F3" fill-opacity="0.8"/>
</svg>
