<svg width="41" height="33" viewBox="0 0 41 33" fill="none" xmlns="http://www.w3.org/2000/svg">
<path fill-rule="evenodd" clip-rule="evenodd" d="M14.612 30.6651V21.0425H21.2824V30.6651H14.612ZM2.03823 19.104L17.9488 2.9089L24.2388 9.31142V3.91828H28.2492V13.394L33.8575 19.1045V19.2524H30.6984V30.6662L23.3212 30.6647V19.0034H12.5738V30.6637L5.1985 30.6652V19.2514H2.03827L2.03823 19.104ZM17.9488 0L0 18.2704V21.2907H3.1597V32.7045H32.737L32.7368 21.2907H35.8965V18.2704L30.2882 12.5609V1.88005H22.1999V4.32739L17.9488 0Z" fill="#F3F3F3" fill-opacity="0.8"/>
<path d="M41 13.2427H34.6735V3L24 19.7573H30.3265V30L41 13.2427Z" fill="#C4C6D2"/>
</svg>
